<svg width="28" height="20" viewBox="0 0 28 20" fill="none" xmlns="http://www.w3.org/2000/svg">
<path d="M26.448 11.136H1.392C0.6264 11.136 0 10.5096 0 9.74399C0 8.97839 0.6264 8.35199 1.392 8.35199H26.448C27.2136 8.35199 27.84 8.97839 27.84 9.74399C27.84 10.5096 27.2136 11.136 26.448 11.136Z" fill="#333333"/>
<path d="M26.448 2.784H1.392C0.6264 2.784 0 2.1576 0 1.392C0 0.6264 0.6264 0 1.392 0H26.448C27.2136 0 27.84 0.6264 27.84 1.392C27.84 2.1576 27.2136 2.784 26.448 2.784Z" fill="#333333"/>
<path d="M26.448 19.488H1.392C0.6264 19.488 0 18.8616 0 18.096C0 17.3304 0.6264 16.704 1.392 16.704H26.448C27.2136 16.704 27.84 17.3304 27.84 18.096C27.84 18.8616 27.2136 19.488 26.448 19.488Z" fill="#333333"/>
</svg>
